<?xml version="1.0" encoding="utf-8"?>
<!-- Generator: Adobe Illustrator 25.1.0, SVG Export Plug-In . SVG Version: 6.00 Build 0)  -->
<svg version="1.1" id="Capa_1" xmlns="http://www.w3.org/2000/svg" xmlns:xlink="http://www.w3.org/1999/xlink" x="0px" y="0px"
	 viewBox="0 0 1920 1080" style="enable-background:new 0 0 1920 1080;" xml:space="preserve">
<style type="text/css">
	.st0{fill:#FFFFFF;}
	.st1{fill-rule:evenodd;clip-rule:evenodd;fill:#003DA6;}
	.st2{fill:#E82E89;}
	.st3{fill:#93D500;}
	.st4{fill:#5BC4F1;}
	.st5{fill:#003DA6;}
	.st6{fill-rule:evenodd;clip-rule:evenodd;fill:#5BC4F1;}
	.st7{fill-rule:evenodd;clip-rule:evenodd;fill:#009EE3;}
</style>
<path class="st0" d="M1622.16,467.66c-5.44-17.77-11.64-33.21-18.84-46.99c-28.41-55.7-75.14-104.35-135.2-140.77
	c-55.76-33.51-118.6-54.01-181.27-59.24c-28.1-2.86-59.17-0.93-95.4,3.32c-28.05,3.29-27.33-1.07-26.46-13.08
	c0.8-11.16-7.06-21.85-17.35-26.19c-29.38-12.43-62.43-18.04-95.48-16.46c-27.2,1.68-51.48,7.26-76.33,17.81
	c-3.11,1.32-6.55,0.66-9.29-1.32c-5.95-4.3-13.26-6.85-21.17-6.85c-20.03,0-36.27,16.24-36.27,36.27c0,3.05,0.43,5.99,1.18,8.81
	c0.33,1.25,0.7,2.47,0.47,4.02c-0.2,1.35-1.11,2.31-2.09,3.24c-5.99,5.71-11.57,11.59-16.79,17.64c-1.79,2.07-9.41-1.22-13.03-3.93
	c-26.84-20.08-59.96-34.81-101.64-45.1c-35.03-8.06-71.65-11.13-108.89-9.21c-77.79,4.05-150.05,27.68-209.03,68.37
	c-33.24,23.08-60.81,50.44-82.04,81.47c-23.09,34.34-38.55,70.22-45.32,106.21c-16.43,87.34,2.54,146.77,7.51,161.72
	c25.25,75.87,52.3,80.59,75.78,111.2c6.3,8.21,18.96,26.37,26.26,34.18c1.6,1.73,3.29,3.47,4.98,5.21c1.67,1.68,3.25,3.41,4.98,5.05
	c67.28,66.15,201.56,135.12,445.68,77.88c5.98-1.4,12.06-2.8,18.15-4.44c26.91-7.24,42.19,4.78,48.69,10.92
	c6.5,6.14,14.63,11.58,24.63,15.89c12.97,5.3,26.53,7.06,38.83,7.06c9.06,0,17.44-0.96,24.4-2.15c6.1-1.05,11.87-2.3,17.44-3.73
	c10.92-2.8,22.2-3.16,33.21-0.74c14.39,3.16,32.94,6.56,54.64,9.08c19.92,2.66,40.14,4.46,60.9,4.46c14.45,0,29.13-0.84,43.92-2.13
	c46.99-3.52,98.6-13.95,150.01-36.33c0.07-0.03,0.15-0.06,0.22-0.09c2.83-1.23,5.66-2.4,8.48-3.71c5.63-2.6,10.94-5.34,16.25-8.07
	c3.81-1.89,7.78-3.49,11.53-5.49c27.28-15.32,49.86-31.55,69.44-50c21.2-20.88,36.1-40.68,46.63-61.06
	c8.43-15.55,13.38-27.55,18.58-40.34c5.37-13.21,10.2-20.94,23.12-44.29c16.22-29.32,26.46-71.49,24.62-106.37
	C1630.11,502.8,1627.01,487.27,1622.16,467.66z"/>
<g>
	<path class="st1" d="M934.04,206.62c2.72-0.85,4.94,2.14,7.23,1.56c9.67-2.98,15.08,2.15,24.29,8.11
		c3.42,2.55,8.84-0.62,11.68-2.17c25-11.96,49.05-17.99,76.52-19.69c28.5-1.43,57.49,3.37,83.65,14.43
		c2.41,0.51,1.17,1.32,0.06,1.45c-25.89,0.94-49.52,3.43-74.1,10.06c-18.82,4.98-36.88,10.12-54.22,20.13
		c-5.32,2.85-7.49,9.59-5.44,15.08c1.64,5.79,3.64,11.63,6.74,17.35c4.14,7.77,8.39,14.82,13.33,22.04
		c5.03,6.89,10.97,12.85,17.25,18.9c21.3,18.68,29.66,20.11,35.18,24.56c2.21,1.57-0.31,1.38-1.65,1.09
		c-3.47-0.75-7.88-2.05-11.19-3.49c-15.53-5.14-27.91-14.69-41.3-23c7.11,18.89,14.55,36.39,14.4,57.31c0.15,2.57-1.3,2.61-1.7,1.08
		c-3.48-12.31-6.18-23.37-12.55-35.6c-5.14-9.76-10.49-18.52-17.44-26.51c-11.41-14.03-20.39-26.1-39.2-34.48
		c-4.34-1.64-9.05-1.6-12.9,1.18c-20.6,15.1-37.22,33.57-53.67,54.59c-14.48,18.59-25.97,39.95-33.55,56.77
		c-1.08,1.58-1.55,0.39-1.74-0.37c1.24-32.64,10.67-66.39,27.51-94.2c11.73-19.18,26.11-35.58,42.6-50.12
		c6.3-5.85,6.12-14.94,3.03-22.47c-1.19-2.79-0.22-5.47-0.34-8.38C936.61,209.71,933.93,208.76,934.04,206.62"/>
	<path class="st2" d="M725.09,438.51c-4.15,8.77-1.75,15.88-1.75,15.88s-21.74-3.11-24.38,12.42c-2.78,16.34,20.03,15,20.03,15
		s-7.6,14.6,0.72,21.31c10.87,8.77,23.78-10.36,23.78-10.36s5.41,9.31,12.56,12.57c5.7,2.59,11.07,2.46,15.41-3.24
		c11.63-15.28-8.93-28.18-8.81-28.56c0.12-0.38,6.59-4.29,9.5-7.09c2.91-2.8,7.43-9.55,4.28-15.51c-3.15-5.95-8.83-8.17-15.25-5.46
		c-5.8,2.44-11.18,6.11-11.18,6.11s-1.45-7.93-5.13-13.8C741.16,431.87,729.24,429.74,725.09,438.51z M746.67,461.46
		c7.8,3.21,8.78,9.16,7.06,13.14c-3.62,8.41-15.49,4.36-18.48,2.89c-3-1.47-8.56-7.15-6.16-13.68
		C731.49,457.28,737.8,457.81,746.67,461.46z"/>
	<path class="st2" d="M821.56,824.24c-46.74,11.9-95.92,14.01-144.43,8.46c-48.54-5.39-96.87-18.77-141.33-41.98
		c-43.93-23.08-86.08-56.78-109.2-104.45c-11.81-23.4-17.08-50.01-15.36-75.88c3.05-26.18,13-48.82,26.13-69.1
		c-3.74,23.7-7.23,47.41-3.89,68.74c1.72,10.5,4.35,21.25,8.66,30.99c3.93,9.9,8.77,19.37,14.87,28.11
		c23.96,35.24,60.23,61.53,99.41,82.25c39.4,20.81,82.56,35.59,126.93,47.41C727.91,810.24,773.85,817.81,821.56,824.24z"/>
	<path class="st3" d="M1586.39,607.43c7.69-58.09-8.47-111.97-38.72-156.05c-15.15-22-32.61-42.53-52.94-60.21
		c-19.89-18.06-41.59-34.31-64.73-48.36c-46.25-28.22-97.35-48.8-151.05-61c-53.65-12.21-110.67-14.62-168.09-8.52
		c26.53-11.89,55.31-19.1,84.38-23.35c28.91-4.08,59.21-6.19,88.97-3.19c59.75,4.99,118.51,24.45,170.41,55.64
		c51.64,31.3,97.31,75.23,125.37,130.21c7.09,13.61,12.62,28.1,17.11,42.75c3.68,14.97,6.91,29.98,7.53,45.3
		C1606.23,551.13,1599.84,581.62,1586.39,607.43z"/>
	<path class="st4" d="M1139.2,843.94c49.54-7.62,97.49-16.5,144.12-29.22c46.35-13.19,91.71-29.13,132.77-51.84
		c20.72-10.91,40.16-23.84,57.52-38.7c17.7-14.52,32.67-31.71,44.49-50.76c11.27-19.31,19.01-40.93,21.42-64.15
		c2.98-23.25,0.06-47.59-5.05-72.14c13.48,21.18,22.42,45.84,25.05,72.14c2.36,26.24-2.05,53.83-13.12,78.62
		c-10.65,25.09-28.09,46.34-46.95,64.92c-19.37,18.24-41.23,33.1-63.89,45.82c-45.96,24.43-95.51,39.69-145.75,47.08
		C1239.62,853.09,1188.52,853.2,1139.2,843.94z"/>
	<path class="st4" d="M382.91,650.2c-13.49-30.24-23.31-62.43-28.5-96.03c-4.32-33.6-4.31-68.6,3.08-102.93
		c6.68-34.49,21.61-67.58,41.48-97.11c20.14-29.47,46.28-54.48,75.22-74.57c58.25-40.18,127.25-60.17,195.45-63.72
		c34.19-1.8,68.52,0.94,101.64,8.58c32.9,8.12,65.16,20.58,91.83,40.54c-63.19-19.66-127.61-19.57-189.39-9.79
		c-61.65,10.25-120.96,31.99-170.75,66.08c-49.75,34.02-88.54,82.06-107.42,140.15c-9.45,28.92-14.82,59.81-16.42,91.55
		C377.29,584.81,380.21,617.06,382.91,650.2z"/>
	<path class="st5" d="M806.53,410.33h45.28v11.9h-32.21v12.66H848v11.89h-28.39v23.03h-13.07V410.33z M867.21,444.31v-33.99h13.07
		v33.66c0,9.68,4.86,14.7,12.84,14.7c8,0,12.84-4.84,12.84-14.28v-34.07h13.07v33.57c0,18.01-10.11,26.85-26.08,26.85
		S867.21,461.82,867.21,444.31z M938.26,410.33h44.85v11.65h-31.86v12.06h28.05v11.65h-28.05v12.49h32.29v11.65h-45.28V410.33z
		 M1001.07,410.33h12.05l27.88,36.62v-36.62h12.92v59.48h-11.13L1013.97,432v37.81h-12.9V410.33z M1087.9,422.39h-18.11v-12.06
		h49.29v12.06h-18.09v47.42h-13.1V422.39z M1134.99,410.33h44.85v11.65h-31.86v12.06h28.05v11.65h-28.05v12.49h32.29v11.65h-45.28
		V410.33z M611.65,510.73c-2.05-6.82-5.52-12.42-10.4-16.77c-4.88-4.35-11.42-7.51-19.63-9.48c-8.21-1.96-18.48-2.95-30.8-2.95
		h-41.58v176.32h34.14v-68.27h9.75c11.29,0,20.87-1.06,28.75-3.2c7.87-2.13,14.24-5.42,19.12-9.86c4.88-4.44,8.38-10.07,10.52-16.9
		c2.14-6.82,3.21-14.85,3.21-24.07C614.73,525.83,613.7,517.56,611.65,510.73z M579.18,548.65c-0.94,3.34-2.57,5.99-4.88,7.96
		c-2.31,1.97-5.3,3.3-8.98,3.97c-3.68,0.69-8.17,1.03-13.47,1.03h-8.47v-52.1h8.47c5.65,0,10.31,0.39,13.99,1.16
		c3.68,0.77,6.59,2.14,8.73,4.11c2.14,1.97,3.68,4.62,4.62,7.96c0.94,3.34,1.41,7.66,1.41,12.96
		C580.59,541,580.12,545.32,579.18,548.65z M638.93,552.37c0-3.93-0.68-6.89-2.05-8.85c-1.37-1.97-4.02-2.95-7.96-2.95
		c-1.54,0-2.65,0.17-3.34,0.51v-22.68c0-0.68,0.52-1.26,1.18-1.37c5.83-0.91,10.9-1.37,15.22-1.37c7.64,0,13.5,1.25,17.57,3.76
		c4.07,2.51,6.87,7.05,8.4,13.62c3.58-5.01,8.27-9.16,14.09-12.45c5.82-3.29,12.74-4.93,20.79-4.93c0.85,0,2.01,0.04,3.46,0.13
		c1.45,0.09,2.69,0.3,3.72,0.65v24.63c-1.37-0.34-2.87-0.55-4.49-0.64c-1.63-0.08-3.04-0.13-4.23-0.13
		c-4.28,0.17-8.26,0.99-11.93,2.44c-3.68,1.46-6.89,3.72-9.62,6.8c-2.74,3.08-4.88,7.1-6.42,12.06c-1.54,4.96-2.31,11.12-2.31,18.48
		v77.77h-32.08V552.37z M754.61,518.5v106c0,3.94,0.64,6.8,1.92,8.6c1.28,1.8,3.89,2.69,7.83,2.69c1.37,0,2.39-0.09,3.08-0.26v23.36
		c-6.5,1.03-11.98,1.54-16.42,1.54c-5.48,0-10.01-0.6-13.6-1.8c-3.59-1.2-6.51-3.12-8.73-5.77c-2.23-2.65-3.81-6.24-4.75-10.78
		c-0.94-4.53-1.41-10.14-1.41-16.81V518.5H754.61z M782.22,518.5h23.13c1.12,0,2.14,0.63,2.65,1.63l6.31,12.49
		c3.61-4.45,8.03-8.34,13.28-11.68c5.24-3.34,11.3-5,18.17-5c4.3,0,8.77,1.03,13.41,3.08c4.64,2.05,8.68,6.67,12.12,13.86
		c4.26-4.96,9.16-9.02,14.7-12.19c5.54-3.16,12.14-4.75,19.81-4.75c6.14,0,11.25,1.11,15.34,3.34c4.09,2.23,7.37,5.9,9.84,11.04
		c2.47,5.13,4.26,11.93,5.37,20.4c1.11,8.47,1.66,18.95,1.66,31.44v43.89c0,3.42,0.7,5.9,2.09,7.44c1.4,1.54,3.93,2.31,7.59,2.31
		c1.57,0,2.71-0.09,3.4-0.26v23.36c-6.5,1.03-11.98,1.54-16.42,1.54c-5.48,0-10.01-0.6-13.6-1.8c-3.59-1.2-6.55-3.12-8.85-5.77
		c-2.31-2.65-3.94-6.2-4.88-10.65c-0.94-4.45-1.41-10.01-1.41-16.68v-42.09c0-8.55-0.13-15.61-0.39-21.18
		c-0.26-5.56-0.9-9.92-1.93-13.09c-1.03-3.16-2.48-5.39-4.36-6.67c-1.89-1.28-4.45-1.93-7.7-1.93c-5.65,0-9.63,2.1-11.93,6.29
		c-2.31,4.2-3.46,10.14-3.46,17.84v93.17h-32.08v-74.43c0-8.9-0.13-16.13-0.39-21.69c-0.26-5.56-0.87-9.92-1.81-13.09
		c-0.95-3.16-2.29-5.3-4.01-6.42c-1.73-1.11-4.14-1.67-7.25-1.67c-3.28,0-5.96,0.69-8.03,2.05c-2.07,1.37-3.71,3.72-4.92,7.06
		c-1.21,3.34-2.07,7.83-2.59,13.47c-0.52,5.65-0.77,12.83-0.77,21.56v73.15h-32.08V518.5z M1065.83,635.79
		c-3.77,0-6.33-0.85-7.7-2.56c-1.37-1.71-2.05-4.44-2.05-8.2v-40.46c0-13.15-0.86-24.11-2.57-32.91c-1.71-8.79-4.36-15.79-7.95-21
		c-3.59-5.21-8.17-8.92-13.73-11.14c-5.56-2.22-12.28-3.33-20.15-3.33c-6.85,0-13.05,0.81-18.61,2.44
		c-5.57,1.63-10.36,4.32-14.37,8.08c-4.02,3.77-7.19,8.69-9.5,14.76c-2.31,6.08-3.55,13.57-3.72,22.46h30.28
		c0.35-9.17,1.97-15.31,4.88-18.43c2.9-3.11,6.42-4.67,10.52-4.67c2.4,0,4.41,0.47,6.03,1.41c1.63,0.94,2.91,2.7,3.85,5.26
		c0.94,2.57,1.63,5.99,2.05,10.26c0.43,4.28,0.73,9.75,0.9,16.43c-8.56,0-16.69,0.9-24.39,2.69c-7.69,1.8-14.5,4.58-20.4,8.34
		c-5.91,3.76-10.57,8.69-13.99,14.75c-3.42,6.08-5.13,13.39-5.13,21.95c0,11.47,2.86,20.75,8.6,27.85
		c5.73,7.1,14.33,10.65,25.8,10.65c5.47,0,11.16-1.16,17.07-3.47c5.9-2.31,11.07-6.46,15.53-12.45c1.71,5.99,4.53,10.14,8.47,12.45
		c3.93,2.31,9.67,3.47,17.2,3.47c4.45,0,9.92-0.51,16.42-1.54v-23.36C1068.31,635.71,1067.2,635.79,1065.83,635.79z M1024,609.61
		c0,4.97-0.47,9.11-1.41,12.45c-0.95,3.34-2.27,6.03-3.98,8.08c-1.71,2.06-3.63,3.51-5.78,4.37c-2.14,0.86-4.41,1.28-6.8,1.28
		c-4.97,0-8.65-1.58-11.04-4.75c-2.4-3.16-3.59-7.48-3.59-12.96c0-4.45,0.85-8.21,2.56-11.29c1.71-3.08,4.06-5.52,7.06-7.32
		c2.99-1.79,6.46-3.08,10.39-3.85c3.93-0.77,8.13-1.16,12.58-1.16V609.61z M1062.51,518.5h29.47c1.53,0,2.85,1.06,3.18,2.55
		l20.22,91.64l20.23-91.64c0.33-1.49,1.65-2.55,3.18-2.55h29.47l-36.7,139.36h-32.34L1062.51,518.5z M1234.86,624.37
		c-0.86,2.99-1.97,5.35-3.34,7.06c-1.37,1.71-3,2.87-4.88,3.47c-1.89,0.6-4.11,0.9-6.68,0.9c-6.85,0-11.68-2.65-14.5-7.96
		c-2.82-5.3-4.23-14.11-4.23-26.43c2.22,0.34,4.4,0.56,6.54,0.64c2.14,0.09,3.98,0.13,5.52,0.13c9.58,0,17.75-1.28,24.51-3.85
		c6.76-2.57,12.32-6.11,16.68-10.65c4.36-4.53,7.57-9.79,9.63-15.79c2.05-5.99,3.08-12.32,3.08-18.99c0-4.62-0.73-9.15-2.18-13.6
		c-1.46-4.45-3.94-8.43-7.44-11.93c-3.51-3.51-8.26-6.29-14.24-8.34c-5.99-2.05-13.52-3.08-22.58-3.08
		c-16.77,0-29.56,5.65-38.37,16.94c-8.81,11.29-13.22,29.94-13.22,55.95c0,23.96,3.97,41.88,11.93,53.77
		c7.96,11.89,20.75,17.84,38.37,17.84c13,0,23.57-3.68,31.7-11.04c8.12-7.36,12.96-19.51,14.5-36.45h-28.75
		C1236.4,617.57,1235.72,621.37,1234.86,624.37z M1202.78,559.56c1.02-4.96,2.39-8.86,4.11-11.68c1.71-2.82,3.76-4.75,6.16-5.77
		c2.39-1.03,4.88-1.54,7.44-1.54c5.3,0,9.07,1.46,11.29,4.36c2.22,2.91,3.34,6.33,3.34,10.27c0,6.84-1.88,12.66-5.65,17.45
		c-3.77,4.79-10.44,7.19-20.02,7.19c-2.22,0-4.96-0.26-8.21-0.77C1201.24,571.03,1201.75,564.53,1202.78,559.56z M1289.49,552.37
		c0-3.93-0.68-6.89-2.05-8.85c-1.37-1.97-4.02-2.95-7.95-2.95c-1.54,0-2.65,0.17-3.34,0.51V518.4c0-0.67,0.51-1.25,1.18-1.36
		c5.83-0.91,10.91-1.37,15.23-1.37c7.63,0,13.49,1.25,17.57,3.76c4.08,2.51,6.87,7.05,8.4,13.62c3.58-5.01,8.27-9.16,14.09-12.45
		c5.82-3.29,12.75-4.93,20.79-4.93c0.85,0,2.01,0.04,3.46,0.13c1.45,0.09,2.69,0.3,3.72,0.65v24.63c-1.37-0.34-2.87-0.55-4.49-0.64
		c-1.63-0.08-3.04-0.13-4.23-0.13c-4.28,0.17-8.26,0.99-11.94,2.44c-3.68,1.46-6.89,3.72-9.63,6.8c-2.74,3.08-4.88,7.1-6.41,12.06
		c-1.54,4.96-2.31,11.12-2.31,18.48v77.77h-32.08V552.37z M1465.42,635.79c-3.77,0-6.34-0.85-7.7-2.56
		c-1.37-1.71-2.05-4.44-2.05-8.2v-40.46c0-13.15-0.86-24.11-2.57-32.91c-1.71-8.79-4.36-15.79-7.95-21s-8.17-8.92-13.73-11.14
		c-5.56-2.22-12.28-3.33-20.14-3.33c-6.85,0-13.05,0.81-18.61,2.44c-5.56,1.63-10.36,4.32-14.37,8.08
		c-4.02,3.77-7.19,8.69-9.5,14.76c-2.31,6.08-3.55,13.57-3.72,22.46h30.28c0.34-9.17,1.97-15.31,4.88-18.43
		c2.9-3.11,6.42-4.67,10.52-4.67c2.39,0,4.4,0.47,6.03,1.41c1.62,0.94,2.9,2.7,3.85,5.26c0.94,2.57,1.63,5.99,2.05,10.26
		c0.43,4.28,0.73,9.75,0.9,16.43c-8.56,0-16.68,0.9-24.38,2.69c-7.7,1.8-14.5,4.58-20.4,8.34c-5.9,3.76-10.57,8.69-13.99,14.75
		c-3.42,6.08-5.13,13.39-5.13,21.95c0,11.47,2.86,20.75,8.6,27.85c5.73,7.1,14.33,10.65,25.79,10.65c5.47,0,11.17-1.16,17.07-3.47
		c5.9-2.31,11.08-6.46,15.53-12.45c1.71,5.99,4.53,10.14,8.47,12.45c3.93,2.31,9.67,3.47,17.2,3.47c4.45,0,9.92-0.51,16.43-1.54
		v-23.36C1467.9,635.71,1466.79,635.79,1465.42,635.79z M1423.58,609.61c0,4.97-0.47,9.11-1.41,12.45
		c-0.95,3.34-2.27,6.03-3.98,8.08c-1.71,2.06-3.64,3.51-5.78,4.37c-2.14,0.86-4.41,1.28-6.8,1.28c-4.97,0-8.64-1.58-11.04-4.75
		c-2.4-3.16-3.59-7.48-3.59-12.96c0-4.45,0.85-8.21,2.56-11.29c1.71-3.08,4.06-5.52,7.06-7.32c2.99-1.79,6.46-3.08,10.39-3.85
		c3.93-0.77,8.12-1.16,12.58-1.16V609.61z"/>
	<path class="st6" d="M1082.31,830.34c-11.79-8.25-19.37-27.79-20.48-30.68c-6.7-17.52-16.15-35.8-41.54-40.66
		c-50.27-9.63-75.83,56.77-21.84,80.07c14.4,5.88,31.99,6.25,48.91,3.34c14.24-2.45,25.79-5.68,36.37-9.59
		C1085.14,832.1,1084.1,831.69,1082.31,830.34z"/>
	<path class="st7" d="M1037.65,831.79c0.16,3.64-24.08,5.7-38.97-2.06c-14.89-7.76-23.6-16.79-21.45-32.59
		c0.6-4.4-0.32,14.22,29.76,24.2c18.43,6.11,25.1,5.94,27.33,6.34C1038.76,828.47,1037.65,831.79,1037.65,831.79z"/>
</g>
</svg>
