<svg version="1.1" id="Capa_1" xmlns="http://www.w3.org/2000/svg" xmlns:xlink="http://www.w3.org/1999/xlink" x="0" y="0" viewBox="0 0 1984.25 1417.32" style="enable-background:new 0 0 1984.25 1417.32" xml:space="preserve"><style>.st1{clip-path:url(#SVGID_2_);fill-rule:evenodd;clip-rule:evenodd;fill:#00a255}.st3{clip-path:url(#SVGID_12_);fill:#e6007e}.st4{fill:#f192b0}.st4,.st5,.st6{clip-path:url(#SVGID_12_)}.st5{fill:none;stroke:#f192b0;stroke-width:1.781;stroke-miterlimit:10}.st6{fill:#e9418d}</style><defs><path id="SVGID_1_" d="M0 0h1984.25v1417.32H0z"/></defs><clipPath id="SVGID_2_"><use xlink:href="#SVGID_1_" style="overflow:visible"/></clipPath><path d="M93.89 605.25c72.71-55.22 347.55 146.48 347.55 146.48l-83.06-339.08L573.72 695.7c.04.42 403.15 108.01 681.17-49.44 189.51-107.33 580.88-131.71 580.88-131.71s-308.65 162.5-281.62 206.89c8.63 14.18 70.74-2.67 143.65-19.51 117.6-27.17 263.26-54.35 257.75 48.69-7.98 149.23-422.7 234.59-422.7 234.59S950.98 982 241.91 982c-35.97 0-215.49-325.51-148.02-376.75" style="clip-path:url(#SVGID_2_);fill-rule:evenodd;clip-rule:evenodd;fill:#6fbc85"/><path class="st1" d="M449.79 594.83s-92.04-209.18-8.11-229.74C535.97 342 607.71 571.9 607.61 571.93l5.85 3.51s-8.04-17.68-10.43-39.36c-3.24-29.4-10.05-65.94-10.05-65.94s18.38 14.2 37.29 32.71c33.75 33.03 77.13 79.26 77.13 79.26s98.83-97.16 219.98-73.33C1048.53 532.6 842.5 982 842.5 982H403.57S135.4 909.64 277.06 865.76c141.66-43.88 201.83-41.34 201.83-41.34S213.7 776.23 157.96 716.26c-55.74-59.97 186.98-46.65 186.98-46.65S198.28 573.67 166.6 550.03c-27.71-20.68-40.62-65.46-26.41-92.72 78.93-151.4 309.6 137.52 309.6 137.52"/><path class="st1" d="M1170.3 469.86c59.68 124.47 22.74 115 53.29 77.6 0 0 35.61-44.28 72.3-79.53 35.68-34.3 72.45-59.6 72.45-59.6l-47.91 154.25s151.21-260.17 296.91-218.72c142.41 40.51-85.56 287.27-85.56 287.27s113.26-44.46 212.94 19.28c112.56 71.99-266.8 332.42-268.85 332.14l-457.11.01s-201-233.74-52.91-226.93c148.09 6.8 203.81 29.61 203.81 29.61s-227.71-85.19-259.78-160.51c-32.08-75.32 186.32-30.57 186.32-30.57s-78.38-77.91-100.15-110.89c-19.05-28.86-12.07-55.23 7.45-78.98 34.8-42.36 112.03-48.66 166.8 65.57"/><defs><path id="SVGID_3_" d="M0 1.41h1984.25v1415.91H0z"/></defs><clipPath id="SVGID_4_"><use xlink:href="#SVGID_3_" style="overflow:visible"/></clipPath><path d="M125.94-10.27c-6.22 1.26-143 15.95-132.41 90.41C4.11 154.6 144.08 66.78 144.08 66.78s-48.89 64.21-62.45 167.58c-13.56 103.37 63.01 175.16 90.56 94.37 27.55-80.79 33.01-219.31 33.01-219.31-.17.13 42.83 124.1 86.02 189.52 43.24 65.49 107.2-3.59 102.34-47.23-4.86-43.63-122.82-163.37-122.82-163.37s121.95 85.25 215.04 118.94c93.1 33.7 115.63-27.18 115.9-65.32C601.95 103.83 301.4 8.57 301.4 8.57c-.1.35 275.26 73.96 320.6 50.59 44.18-22.77 51.15-107.19-20.73-113.32-71.88-6.12-471.45 41.92-471.45 41.92" style="clip-path:url(#SVGID_4_);fill-rule:evenodd;clip-rule:evenodd;fill:#00945e"/><defs><path id="SVGID_5_" d="M0 0h1984.25v1417.32H0z"/></defs><clipPath id="SVGID_6_"><use xlink:href="#SVGID_5_" style="overflow:visible"/></clipPath><defs><path id="SVGID_7_" d="M0 0h1984.25v1417.32H0z"/></defs><clipPath id="SVGID_8_"><use xlink:href="#SVGID_7_" style="overflow:visible"/></clipPath><defs><path id="SVGID_9_" d="M0 0h1984.25v1417.32H0z"/></defs><clipPath id="SVGID_10_"><use xlink:href="#SVGID_9_" style="overflow:visible"/></clipPath><defs><path id="SVGID_11_" d="M0 0h1984.25v1417.32H0z"/></defs><clipPath id="SVGID_12_"><use xlink:href="#SVGID_11_" style="overflow:visible"/></clipPath><path class="st3" d="m1221.51 169.6 58.05 79.75s4.96 44.99-23.76 46.83c-28.71 1.85-28.42-55.04-28.42-55.04s-82.46 11.69-85.05-26.84c-3.54-52.52 79.18-44.7 79.18-44.7M1239.99 160.2l56.3 72.98s33.62 8.1 44.04-13.21c14.23-29.09-43.42-35.87-43.42-35.87s12.93-34.54 9.14-58.9c-4.32-27.71-26.24-45.29-41.37-38.21-28.43 13.29-24.69 73.21-24.69 73.21"/><path class="st4" d="M1171.76 117.87c-2.19 2.33 3.17 11.38 5.31 4.78 2.14-6.6-1.66-8.67-5.31-4.78"/><path class="st5" d="M1171.76 117.87c-2.19 2.33 3.17 11.38 5.31 4.78 2.14-6.6-1.66-8.67-5.31-4.78z"/><path class="st4" d="M1204.39 99.23c-4.7-.2-7.41 6.05-2.11 5.88 5.31-.18 9.33-5.58 2.11-5.88"/><path class="st5" d="M1204.39 99.23c-4.7-.2-7.41 6.05-2.11 5.88 5.31-.18 9.33-5.58 2.11-5.88z"/><path class="st4" d="M1218 146.99s70.9 91.29 77.18 98.5c6.29 7.22 2.05 15.89-6.24 5.54 0 0-63.59-88.33-70.14-96.9-6.54-8.57-10.14-17.85-.8-7.14"/><path class="st5" d="M1213.24 138.22s-6.04-7.4-7.75-19.29c-1.71-11.88-1.36-14.47-1.36-14.47M1177.07 122.65s11.85 5.05 20.15 10.34c8.31 5.29 11.17 8.53 11.17 8.53"/><path class="st4" d="M1219.22 137.92c2.58 3.38 1.94 8.22-1.45 10.8-3.38 2.58-8.22 1.94-10.8-1.45-2.58-3.38-1.94-8.22 1.45-10.8 3.38-2.58 8.21-1.93 10.8 1.45"/><path class="st6" d="M1253.85 277.18c-3.79 0-7.53-1.7-10.01-4.95-4.22-5.53-3.16-13.42 2.36-17.64 2.28-1.74 4.97-2.58 7.63-2.58 3.79 0 7.53 1.7 10.01 4.95 4.22 5.52 3.16 13.42-2.36 17.64a12.609 12.609 0 0 1-7.63 2.58M1320.55 226.23c-3.79 0-7.53-1.7-10.01-4.95-4.22-5.52-3.16-13.42 2.36-17.64 2.28-1.74 4.97-2.58 7.63-2.58 3.79 0 7.54 1.7 10.01 4.95 4.22 5.52 3.16 13.42-2.36 17.64a12.609 12.609 0 0 1-7.63 2.58"/></svg>